HIERARCHY
ROOT hip
{
	OFFSET 0.000000 0.000000 0.000000 
	CHANNELS 6 Xposition Yposition Zposition Xrotation Zrotation Yrotation
	JOINT abdomen
	{
		OFFSET 0.000000 3.402643 0.000000 
		CHANNELS 3 Xrotation Zrotation Yrotation
		JOINT chest
		{
			OFFSET 0.000000 8.438565 -0.680529 
			CHANNELS 3 Xrotation Zrotation Yrotation
			JOINT neck
			{
				OFFSET 0.000000 10.207942 -0.272212 
				CHANNELS 3 Xrotation Zrotation Yrotation
				JOINT head
				{
					OFFSET 0.000000 3.130431 0.000000 
					CHANNELS 3 Xrotation Zrotation Yrotation
					End Site
					{
						OFFSET 0.000000 3.130435 0.000000 
					}
				}
			}
			JOINT lCollar
			{
				OFFSET 3.470700 6.669187 -0.816635 
				CHANNELS 3 Yrotation Zrotation Xrotation
				JOINT lShldr
				{
					OFFSET 3.198488 0.000000 0.000000 
					CHANNELS 3 Zrotation Yrotation Xrotation
					JOINT lForeArm
					{
						OFFSET 10.139888 0.000000 0.000000 
						CHANNELS 3 Yrotation Zrotation Xrotation
						JOINT lHand
						{
							OFFSET 8.370511 0.000000 0.000000 
							CHANNELS 3 Zrotation Yrotation Xrotation
							End Site
							{
								OFFSET 4.083176 0.000000 0.000000 
							}
						}
					}
				}
			}
			JOINT rCollar
			{
				OFFSET -3.470700 6.669187 -0.816635 
				CHANNELS 3 Yrotation Zrotation Xrotation
				JOINT rShldr
				{
					OFFSET -3.198488 0.000000 0.000000 
					CHANNELS 3 Zrotation Yrotation Xrotation
					JOINT rForeArm
					{
						OFFSET -10.139888 0.000000 0.000000 
						CHANNELS 3 Yrotation Zrotation Xrotation
						JOINT rHand
						{
							OFFSET -8.370511 0.000000 0.000000 
							CHANNELS 3 Zrotation Yrotation Xrotation
							End Site
							{
								OFFSET -4.083176 0.000000 0.000000 
							}
						}
					}
				}
			}
		}
	}
	JOINT lThigh
	{
		OFFSET 5.308129 -1.633274 1.361059 
		CHANNELS 3 Xrotation Zrotation Yrotation
		JOINT lShin
		{
			OFFSET -2.041588 -20.007561 0.000000 
			CHANNELS 3 Xrotation Zrotation Yrotation
			JOINT lFoot
			{
				OFFSET 0.000000 -19.190928 -1.224953 
				CHANNELS 3 Xrotation Yrotation Zrotation
				End Site
				{
					OFFSET 0.000000 -2.449906 4.627600 
				}
			}
		}
	}
	JOINT rThigh
	{
		OFFSET -5.308129 -1.633274 1.361059 
		CHANNELS 3 Xrotation Zrotation Yrotation
		JOINT rShin
		{
			OFFSET 2.041588 -20.007561 0.000000 
			CHANNELS 3 Xrotation Zrotation Yrotation
			JOINT rFoot
			{
				OFFSET 0.000000 -19.190928 -1.224953 
				CHANNELS 3 Xrotation Yrotation Zrotation
				End Site
				{
					OFFSET 0.000000 -2.449906 4.627600 
				}
			}
		}
	}
}
MOTION
Frames: 6
Frame Time: 0.016667
0.679062 48.185684 2.125429 -7.000758 6.861228 -65.747849 16.115040 -8.599627 7.456160 -9.636755 0.436513 6.631112 29.608173 1.171874 -0.058582 -29.564173 -1.758936 10.190288 17.123713 8.951110 21.361403 -52.145489 -14.646987 4.458697 -92.487183 13.985217 28.158838 -55.268742 -49.292454 29.416897 -1.821852 -6.231983 24.487936 38.167625 17.247015 95.330864 -4.805449 -46.396263 -109.185699 54.426262 48.276455 47.653568 -1.784774 0.124948 17.115137 28.319773 3.947585 -0.156075 -16.011013 -20.590546 3.527745 -27.818680 -7.723392 -0.153504 63.497078 6.553475 6.364447 -3.205632 0.420236 12.662915 
0.462022 48.315964 2.014511 -6.598604 6.304637 -65.161469 16.115040 -8.599627 7.456160 -9.687705 -0.087323 6.513679 29.860392 3.662103 0.107826 -29.706606 -2.939930 9.240305 15.572887 10.957814 21.137213 -51.835873 -16.741276 4.315855 -92.827629 14.791448 27.476789 -55.475483 -48.176731 28.941305 -3.789637 -4.412195 24.410263 38.440502 14.952558 96.462196 -1.599526 -45.663750 -105.917366 52.729496 49.026398 46.085796 -0.761033 0.799237 17.342766 27.348343 4.075469 -0.055096 -15.756040 -21.313803 2.977960 -25.632750 -7.840972 -0.309350 61.739925 8.760322 6.735274 -3.211704 -3.317346 13.136031 
0.244949 48.446083 1.903592 -6.212173 5.749633 -64.584267 16.115040 -8.599627 7.456160 -9.736513 -0.611404 6.396848 30.129286 6.162029 0.295469 -29.829454 -4.126469 8.292757 14.009647 12.964697 20.969831 -51.518566 -18.835308 4.159819 -93.163551 15.603094 26.806381 -55.674191 -47.069973 28.460426 -5.746354 -2.584166 24.400108 38.665237 12.650993 97.571922 1.513945 -44.794544 -102.750435 50.995247 49.740940 44.479565 0.253535 1.451675 17.561861 26.382952 4.205636 0.024195 -15.492957 -22.037233 2.400146 -23.439564 -7.946576 -0.451616 59.985775 10.986944 7.023630 -3.154207 -7.044306 13.639253 
-0.000171 48.448841 1.789566 -5.911394 4.948902 -63.869324 16.115040 -8.599627 7.456160 -9.460567 -1.223108 6.270807 30.282429 8.827789 0.504137 -30.005049 -5.349059 7.140161 12.233789 15.259018 20.984365 -50.925163 -21.133537 3.919348 -93.061890 16.557755 26.073971 -55.570553 -46.200691 27.828789 -7.751639 -0.741515 24.579710 38.805088 10.419600 98.696571 3.296321 -44.232735 -101.174400 49.457981 50.277645 42.752975 0.829497 2.255830 17.823730 26.702543 4.693438 0.121052 -15.969112 -22.856066 1.682308 -20.753258 -7.809602 -0.510787 57.671864 12.977949 7.286432 -3.739063 -10.196110 14.120484 
-0.245271 48.451408 1.675549 -5.611617 4.146615 -63.155739 16.115040 -8.599627 7.456160 -9.182670 -1.844846 6.135909 30.434080 11.503053 0.708644 -30.148787 -6.565991 5.976581 10.439842 17.551680 21.074421 -50.307632 -23.425611 3.656846 -92.945404 17.513893 25.343784 -55.470379 -45.341896 27.213005 -9.759969 1.105497 24.815729 38.893044 8.200635 99.803558 5.042922 -43.641258 -99.632538 47.885563 50.772755 40.992489 1.414204 3.033482 18.101406 27.045839 5.181956 0.220850 -16.481731 -23.681559 0.944675 -18.083118 -7.655099 -0.575943 55.348488 14.970267 7.486037 -4.298315 -13.359235 14.555243 
-0.474624 48.303082 1.568139 -5.354402 3.286322 -62.711212 16.115040 -8.599627 7.456160 -8.681603 -2.311372 6.029923 30.428455 13.806973 0.895297 -30.150490 -7.689314 4.690173 8.869790 19.773867 21.295618 -49.222359 -25.675238 3.224772 -92.419670 18.707722 24.704218 -54.971642 -44.817364 26.544905 -11.453700 2.441510 24.889891 39.438908 6.342486 101.160095 4.899551 -43.443405 -99.897079 46.274662 51.127182 38.945107 1.276320 3.958512 18.409512 28.875229 5.990828 0.311036 -17.479565 -24.268250 0.018916 -15.748348 -7.107758 -0.508471 53.398689 16.261366 7.635399 -5.671269 -15.286057 14.356638 
